# xmcd CD database file
#
# Track frame offsets:
#	150
#	9397
#	25332
#	35825
#	45390
#	59375
#	72352
#	105852
#	114440
#	124372
#	152747
#	160487
#	193895
#	201987
#	213915
#
# Disc length: 3055 seconds
#
# Revision: 7
# Processed by: cddbd v1.5.2PL0 Copyright (c) Steve Scherf et al.
# Submitted via: CDex 1.40PlusFr
#
DISCID=d30bed0f
DTITLE=Musique du film de Woody Allen - Accords § Désaccords
DYEAR=1900
DGENRE=Blues
TTITLE0=I'll See You In My Dreams
TTITLE1=Caravan
TTITLE2=Sweet Georgia Brown
TTITLE3=Unfaithful Woman
TTITLE4=Viper Mad
TTITLE5=Wrap Your Troubles in Dreams
TTITLE6=Old-Fashioned Love
TTITLE7=Limehouse Blues/Mystery Pacific
TTITLE8=Just a Gigolo
TTITLE9=3:00 AM Blues
TTITLE10=All of Me/ The Peanut Vendor
TTITLE11=It Don't Mean A Thing If It Ain't Got That Swing
TTITLE12=Shine
TTITLE13=I'm Forever Blowing Bubbles
TTITLE14=There'll Be Some Changes Made
EXTD=ID3G: 0
EXTT0=
EXTT1=
EXTT2=
EXTT3=
EXTT4=
EXTT5=
EXTT6=
EXTT7=
EXTT8=
EXTT9=
EXTT10=
EXTT11=
EXTT12=
EXTT13=
EXTT14=
PLAYORDER=
